<svg xmlns="http://www.w3.org/2000/svg" xmlns:xlink="http://www.w3.org/1999/xlink" version="1.1" x="0px" y="0px" viewBox="0 0 512 640" style="enable-background:new 0 0 512 512;" xml:space="preserve"><g><g><g><path d="M246.87,147.55c-0.99,35.39,0.23,70.93,0.53,106.33c0.3,35.41,0.66,70.83,1,106.24c0.19,20.04-0.02,40.15,0.79,60.17     c0.03,0.87,1.33,0.87,1.35,0c0.73-35.45-0.51-71.02-0.87-106.47c-0.36-35.55-0.75-71.11-1.15-106.66     c-0.22-19.85-0.1-39.77-1.04-59.61C247.45,147.16,246.88,147.16,246.87,147.55L246.87,147.55z"/></g><g><path d="M272.97,279.03c-5.42,5.28-9.68,11.43-13.34,18.03c-3.76,6.77-6.28,14.71-10.96,20.89c-0.58,0.77,0.73,1.54,1.3,0.76     c4.26-5.88,6.53-13.35,9.87-19.79c3.68-7.07,7.99-13.72,13.57-19.46C273.68,279.18,273.25,278.75,272.97,279.03L272.97,279.03z"/></g><g><path d="M261.79,293.19c-0.15,0.11-2-3.15-2.06-3.32c-0.59-1.84-0.23-3.65,0.51-5.34c1.2-2.73,3.48-4.59,6.03-6.02     c4.69-2.63,10.21-4.22,15.51-2.91c0.81,0.2,1.11-0.96,0.34-1.24c-6.93-2.46-17.41,1.42-21.86,7.17c-1.88,2.43-2.88,5.7-1.9,8.71     c0.38,1.16,2.02,4.44,3.64,3.78c0.21-0.09,0.35-0.27,0.29-0.51c-0.01-0.04-0.02-0.08-0.03-0.12     C262.23,293.2,261.96,293.07,261.79,293.19L261.79,293.19z"/></g><g><path d="M282.02,275.05c-2.96,2.24-5.05,5.28-6.98,8.42c-2.93,4.75-5.95,11.87-12.71,9.53c-0.78-0.27-1.31,0.97-0.56,1.34     c4.15,2.06,6.96,1.01,9.73-2.58c4.02-5.21,6.51-11.25,10.9-16.23C282.6,275.28,282.31,274.83,282.02,275.05L282.02,275.05z"/></g><g><path d="M235.61,302.72c2.73,1.74,5.4,3.2,7.58,5.68c2.35,2.68,3.4,5.65,4.67,8.91c0.29,0.74,1.63,0.73,1.52-0.21     c-0.76-6.44-7.06-13.75-13.52-14.95C235.51,302.09,235.3,302.53,235.61,302.72L235.61,302.72z"/></g><g><path d="M244.08,307.49c1.17-3.53,0.22-7.41-2.67-9.85c-3.43-2.9-10.12-4.64-14.45-3.44c-0.73,0.2-0.61,1.43,0.18,1.36     c7.18-0.65,18.18,2.57,16.29,11.76C243.34,307.73,243.94,307.9,244.08,307.49L244.08,307.49z"/></g><g><path d="M226.99,295.18c1.08,4.92,2.13,11.92,6,15.6c3.54,3.37,8.02-0.35,10.6-3.27c0.47-0.53-0.15-1.49-0.8-1.04     c-1.52,1.05-2.99,2.86-4.69,3.47c-3.27,1.19-4.91-0.59-6.3-3.2c-1.92-3.62-2.82-7.89-4.21-11.74     C227.45,294.64,226.9,294.79,226.99,295.18L226.99,295.18z"/></g><g><path d="M273.71,220.03c-9.67,10.38-18.23,21.69-25.57,33.84c-0.52,0.87,0.84,1.66,1.36,0.79c7.29-12.06,15.5-23.46,24.68-34.16     C274.46,220.18,274.01,219.71,273.71,220.03L273.71,220.03z"/></g><g><path d="M222.48,254.08c6.93,3.14,10.78,9.69,14.63,15.9c4.24,6.84,8.1,13.71,10.36,21.48c0.28,0.96,1.75,0.56,1.5-0.41     c-2.22-8.7-7.06-16.31-11.95-23.72c-3.75-5.67-7.75-11.26-14.3-13.81C222.4,253.38,222.16,253.93,222.48,254.08L222.48,254.08z"/></g><g><path d="M235.66,265.37c-2.08-4.53-8.03-4.18-11.98-2.54c-5.28,2.18-8.9,7.34-8.45,13.11c0.06,0.83,1.25,0.84,1.3,0     c0.24-4.41,2.04-8.38,5.89-10.77c3.48-2.16,9.83-3.58,12.43,0.68C235.17,266.37,235.91,265.91,235.66,265.37L235.66,265.37z"/></g><g><path d="M221.92,264.44c-2.54-6.68-12.5-1.28-16.02,1.69c-6.98,5.87-3.41,16.54,0.32,23.33c0.4,0.73,1.72,0.22,1.39-0.59     c-2.12-5.16-5.75-12.35-3.41-17.92c1.7-4.03,13.64-12.59,17.07-6.24C221.45,265.07,222.07,264.83,221.92,264.44L221.92,264.44z"/></g><g><path d="M223.01,264.71c4.79,0.63,15.38,8.48,7.65,13.06c-2.83,1.67-7.27,1.38-10.43,2.17c-5.45,1.35-11.64,3.62-14.33,8.91     c-0.54,1.06,0.99,1.97,1.6,0.93c3.48-5.92,11.07-7.79,17.43-8.79c3.28-0.51,7.52-0.82,9.29-4.16     c3.57-6.72-5.51-12.84-11.21-12.84C222.53,263.99,222.57,264.65,223.01,264.71L223.01,264.71z"/></g><g><path d="M276.68,243.35c-10.27-1.94-21.53,3.07-28.4,10.61c-0.65,0.71,0.38,1.76,1.06,1.06c7.65-7.79,16.57-10.53,27.24-11.02     C276.95,243.98,277.07,243.42,276.68,243.35L276.68,243.35z"/></g><g><path d="M266.16,245.45c1.65-6.7,9.36-8.46,15.36-7.31c4.7,0.9,8.62,3.42,11.74,6.99c0.6,0.68,1.55-0.3,0.99-0.99     c-4-4.88-10.07-7.82-16.42-7.69c-5.67,0.12-11.46,2.73-12.46,8.78C265.27,245.75,266.03,245.98,266.16,245.45L266.16,245.45z"/></g><g><path d="M294.23,244.84c-2.93-1.21-5.92-0.59-8.26,1.55c-2.64,2.43-3.99,5.17-8.13,5.31c-4.61,0.15-9.06-2.04-9.83-6.84     c-0.15-0.93-1.77-0.73-1.67,0.23c0.56,5.37,4.56,7.71,9.84,8.28c2.46,0.27,4.86-0.22,6.93-1.6c4.04-2.71,4.88-7.17,10.9-6.16     C294.53,245.69,294.71,245.03,294.23,244.84L294.23,244.84z"/></g><g><path d="M258.24,217.06c-1.06,7.27-1.28,14.95-0.32,22.24c0.09,0.72,1.2,0.78,1.17,0c-0.25-7.42-0.42-14.72-0.2-22.15     C258.91,216.79,258.3,216.69,258.24,217.06L258.24,217.06z"/></g><g><path d="M258.11,224.61c-8.78,1.69-6.48-9.09-3.93-13.02c1.99-3.06,4.45-5.61,7.05-8.14c0.6-0.58-0.29-1.44-0.91-0.91     c-4.37,3.78-10,9.89-9.89,16.1c0.08,4.3,3.44,7.87,7.83,6.55C258.65,225.08,258.49,224.53,258.11,224.61L258.11,224.61z"/></g><g><path d="M260.94,202.87c0.45,3.29,1.12,6.53,1.85,9.77c0.61,2.69,1.04,4.52-0.03,7.17c-1.06,2.65-2.49,3.53-4.9,4.84     c-0.94,0.51-0.1,1.95,0.84,1.43c3.2-1.77,6.11-3.76,6.36-7.69c0.32-5.02-2.2-10.9-3.54-15.68     C261.41,202.33,260.89,202.5,260.94,202.87L260.94,202.87z"/></g><g><path d="M207.58,242.35c-4.43,2.74-10.14,5.35-13.84,9.05c-1.76,1.76-2.07,3.66-0.09,5.34c6.36,5.4,18.88,1.44,25.84-0.32     c7.66-1.94,7.72-13.41,4.05-19.11c-5.52-8.59-15.74,3.64-19.97,7.45c-0.66,0.6,0.31,1.56,0.98,0.98c2.04-1.81,4.05-3.65,6.1-5.45     c1.21-1.06,3.07-3.26,4.69-3.67c2.34,0.46,4.68,0.93,7.02,1.39c0.5,0.84,0.87,1.73,1.1,2.66c0.93,2.98,1.27,7.25,0.36,10.31     c-1.35,4.53-6.46,4.68-10.17,5.46c-5.11,1.07-10.92,2.79-16.09,1.2c-2.42-0.19-3.11-1.45-2.06-3.8     c-0.64-1.92-0.13-3.18,1.53-3.77c0.87-0.92,2.35-1.55,3.39-2.24c2.49-1.63,5-3.24,7.52-4.83     C208.35,242.73,207.99,242.1,207.58,242.35L207.58,242.35z"/></g><g><path d="M191.76,241.54c-0.95,0.94-1.19,2.24-0.33,3.39c1.23,1.64,3.53,1.32,5.31,1.1c6.88-0.85,13.97-4.31,17.65-10.51     c2.2-3.72,0.51-10.37-4.32-10.83c-3.37-0.32-5.73,2.51-7.77,4.76c-3.68,4.07-7.4,8.11-11.18,12.09     c-0.59,0.62,0.35,1.56,0.94,0.94c2.78-2.93,5.55-5.88,8.27-8.87c1.49-1.63,2.9-3.41,4.48-4.95c3.81-3.71,9.23-2.62,9.18,3.13     c-0.03,4.04-4.06,7.48-7.19,9.76c-1.87,1.37-3.84,2.23-6.1,2.84c-0.92,0.23-1.85,0.42-2.79,0.58c-2.31,0.75-4.21-0.23-5.69-2.96     C192.51,241.69,192.06,241.24,191.76,241.54L191.76,241.54z"/></g><g><path d="M193.12,224.45c2.18,4.01,8.24,1.47,10.15-1.64c2.84-4.63-6.03-6.51-8.96-5.84c-4.55,1.03-8.59,6.02-7.08,10.8     c1.77,5.58,9.95,5.14,14.33,3.75c1.07-0.34,0.62-2.02-0.47-1.69c-3.11,0.95-6.98,1.42-10-0.14c-3.7-1.92-2.57-6.72-0.01-9.12     c2.22-2.08,5.44-2.67,8.28-1.62c1.74,0.39,2.48,1.59,2.2,3.61c-0.61,0.57-1.27,1.1-1.96,1.57c-1.86,1.19-4.18,1.76-5.81-0.18     C193.46,223.57,192.89,224.05,193.12,224.45L193.12,224.45z"/></g><g><path d="M208.01,226.26c3.88-3.37,4.35-9.1,0.68-12.9c-4.21-4.35-10.91-5.2-16.32-2.99c-5.11,2.09-10.79,6.2-10.78,12.33     c0.02,5.74,4.86,9.53,10.31,9.42c1.14-0.02,1.14-1.79,0-1.77c-5.38,0.1-9.85-4.53-8.15-10.03c1.16-3.76,4.76-6.19,8.14-7.78     c4.39-2.07,8.87-2.17,13.15,0.27c5.02,2.86,6.11,8.28,2.39,12.87C207.11,226.09,207.61,226.61,208.01,226.26L208.01,226.26z"/></g><g><path d="M181.83,220.71c-6.61-0.15-7.86,8-6,12.87c2.48,6.51,9.32,10.1,16.08,8.66c0.93-0.2,0.74-1.8-0.23-1.68     c-5.18,0.64-10.41-0.73-13.31-5.46c-3-4.89-2.66-11.82,3.54-13.77C182.26,221.22,182.19,220.72,181.83,220.71L181.83,220.71z"/></g><g><path d="M177.74,222.89c-4.72-2.53-9.38,0.33-13.4,3.02c-3.83,2.56-4.23,4.75-1.72,8.74c4.84,7.69,16.31,13.14,24.85,8.33     c0.94-0.53,0.09-1.98-0.84-1.44c-6.22,3.6-14.79,0.65-19.62-4.03c-2.93-2.85-5.69-6.71-1.86-10.23     c3.12-2.87,8.27-4.74,12.32-3.72C177.85,223.66,178.11,223.09,177.74,222.89L177.74,222.89z"/></g><g><path d="M174.3,243.01c-6,4.41-8.13,10.4-1.3,15.44c2.95,2.18,6.18,2.82,9.66,1.6c3.52-1.23,8.24-3.27,10.9-5.93     c0.75-0.75-0.4-1.9-1.16-1.16c-2.96,2.86-10.89,6.88-14.9,6.01c-2.3-0.5-5.74-2.73-6.69-4.91c-1.93-4.43,0.93-7.69,3.96-10.45     C175.07,243.32,174.65,242.75,174.3,243.01L174.3,243.01z"/></g><g><path d="M195.77,210.2c2.41-4.05,7.47-5.94,12.1-5.9c4.62,0.04,7.52,4.63,9.47,8.32c3.71,7.02,5.84,15.93,3.36,23.63     c-0.35,1.07,1.36,1.54,1.69,0.47c3.05-9.8-0.64-22.44-7.34-30.05c-2.97-3.37-5.56-4.1-9.89-3.31c-4.3,0.78-8.28,2.33-9.99,6.61     C195.04,210.3,195.59,210.51,195.77,210.2L195.77,210.2z"/></g><g><path d="M223.18,223.12c2.64-0.43,5.63-0.46,8.26,0.1c2.65,0.57,4.19,2.01,5.85,4.07c0.52,0.65,1.66-0.21,1.17-0.9     c-3.54-5.01-9.9-5.36-15.53-4.17C222.33,222.34,222.59,223.21,223.18,223.12L223.18,223.12z"/></g><g><path d="M223.12,236.76c4.31-4.76,9.19-6.86,15.3-8.67c0.72-0.21,0.41-1.35-0.31-1.13c-5.51,1.68-12.74,3.77-15.41,9.48     C222.58,236.69,222.9,237,223.12,236.76L223.12,236.76z"/></g><g><path d="M272.59,192.95c-3.29,4.06-5.64,8.14-5.17,13.51c0.38,4.44,1.73,10.2,5.25,13.26c6.98,6.06,20.45,6.58,27.08-0.01     c0.8-0.79-0.4-1.98-1.23-1.23c-6.44,5.8-18.67,5.4-25.03-0.54c-3.01-2.81-4.45-8.22-4.7-12.3c-0.29-4.72,1.82-8.48,4.29-12.32     C273.26,193.04,272.81,192.67,272.59,192.95L272.59,192.95z"/></g><g><path d="M279.33,181.86c-7.13-4.07-12.6,4.5-8.73,10.62c1.77,2.81,3.68,4.89,4.79,8.14c0.94,2.73,1.37,5.6,2.05,8.4     c0.86,3.56,1.9,7.96,5.68,9.36c0.87,0.32,1.37-1.01,0.62-1.46c-5.41-3.28-4.94-12.74-7.11-18.1c-0.78-1.93-1.85-3.51-3.1-5.15     c-1.75-2.31-3.44-4.29-2.65-7.34c1.03-3.98,4.6-4.86,8.17-3.74C279.46,182.72,279.72,182.08,279.33,181.86L279.33,181.86z"/></g><g><path d="M297.42,191.3c-0.33,0.17-0.67,0.34-1,0.5c-4.76-2.72-5.34-4.57-1.74-5.54c2.57-1.28,3.89-0.91,5.93,1.03     c1.16,1.11,2.24,2.79,2.57,4.41c0.14,0.43,0.28,0.87,0.42,1.3c-1.33,1.91-2.66,3.82-3.99,5.74c-1.98,0.97-6.54-1.19-8.36-2.09     c-1.99-0.98-4.11-2.29-5.63-3.92c-1.8-1.93-2.28-3.71-1.08-5.96c1.3-2.45,0.83-1.07,2.37-2.31c1.08-0.88,2.08-1.87,3.17-2.75     c5.53-4.5,12.66-1.13,17.17,3.07c4.66,4.33,6.84,11.41,3.6,17.33c-3.28,5.97-9.02,3.56-14.44,4.64c-1.54,0.31-2.8,1.19-4.25,1.59     c-0.36,0.21-0.72,0.42-1.08,0.63c-1.24-0.61-2.48-1.23-3.72-1.84c-0.39-0.37-0.67-1.26-0.99-1.73c-0.83-1.21-1.94-2.17-2.93-3.23     c-2.29-2.46-6.12-9.32-0.65-11.18c1.11-0.38,0.65-2.13-0.49-1.77c-5.49,1.71-4.73,8.84-1.82,12.56c1.19,1.52,2.76,2.7,3.92,4.25     c0.91,1.21,1.26,3.1,2.33,4.17c1.91,1.92,3.64,1.22,5.86,0.11c4.44-2.22,8.34-1.39,13.01-2.15c3.26-0.53,5.56-2.19,6.95-5.2     c3.34-7.25,1.2-14.8-4.57-19.92c-4.77-4.23-12.07-7.44-18.02-3.51c-1.61,1.06-2.75,2.48-4.42,3.54c-0.83,0.53-1.62,0.71-2.32,1.5     c-1.46,1.64-1.73,4.1-1.03,6.14c1.97,5.75,10.41,9.63,16.04,9.88c7.15,0.32,8.66-4.85,6.07-10.73c-2.02-4.6-8.56-9.28-12.61-3.81     c-1.37,1.85-1.7,4.74-0.11,6.59c2.17,2.53,4.1,0.84,6.39-0.46C298.53,191.86,298.01,191,297.42,191.3L297.42,191.3z"/></g><g><path d="M291.98,178.96c-2.81-3.51-8.77-5.48-12.22-1.73c-2.96,3.21-0.91,9.6,2.02,12.21c0.82,0.73,2.03-0.47,1.21-1.21     c-2.27-2.06-4.38-7.65-1.89-10.14c3.32-3.33,7.3-0.12,10.43,1.46C291.92,179.74,292.24,179.28,291.98,178.96L291.98,178.96z"/></g><g><path d="M313.43,197.35c3.79,3.96,5.83,11.72-1.26,13.52c-2.03,0.51-4.02,0.07-6.09,0.1c-3.12,0.04-7.78,1.32-9.13-3.06     c-0.33-1.08-2.04-0.62-1.7,0.47c0.84,2.74,2.97,4.12,5.78,4.5c2.86,0.38,5.94-0.12,8.84,0.02c1.72,0.08,3.24,0.01,4.76-0.88     c6.21-3.65,4.26-11.68-0.74-15.27C313.53,196.48,313.14,197.04,313.43,197.35L313.43,197.35z"/></g><g><path d="M287.23,209.7c0.21,3.18,2.46,5.3,5.18,6.71c4.55,2.36,8.26,3.68,11.24,8.15c0.54,0.81,2.09,0.31,1.68-0.71     c-1.16-2.84-3.54-4.88-6.18-6.35c-4.07-2.26-9.22-2.99-10.96-7.93C288.01,209.09,287.19,209.12,287.23,209.7L287.23,209.7z"/></g><g><path d="M309.66,212.27c-0.51,4.06-2.27,8.18-4.91,11.32c-0.47,0.56-0.04,1.55,0.76,1.3c1.99-0.61,2.86-3.43,3.6-5.16     c1.04-2.43,1.75-4.92,1.21-7.56C310.23,211.78,309.7,211.93,309.66,212.27L309.66,212.27z"/></g><g><path d="M269.68,170.59c-9.64,3.01-17.72,9.38-22.96,18.02c-0.43,0.7,0.66,1.33,1.1,0.64c5.25-8.4,12.76-14.54,22.02-18.07     C270.2,171.04,270.06,170.47,269.68,170.59L269.68,170.59z"/></g><g><path d="M255.65,178.23c1.08-3.05,3.1-6.56,6.11-8.13c4.23-2.21,8.5,2.14,9.98,5.8c4.08,10.12-11.81,3.79-15.58,2.11     c-1.03-0.46-1.93,1.05-0.89,1.53c4.37,1.99,10.72,5.19,15.69,3.63c3.53-1.11,3.51-5.06,2.18-7.96c-1.55-3.36-5.78-7.89-9.88-6.99     c-4.27,0.94-7.17,6-8.21,9.84C254.93,178.46,255.51,178.61,255.65,178.23L255.65,178.23z"/></g><g><path d="M213.94,177.76c8.19,0.35,14.37,5.36,19.84,10.99c4.92,5.07,9.44,10.29,12.77,16.56c0.42,0.79,1.56,0.1,1.19-0.7     c-3.38-7.26-9.35-13.36-15.07-18.84c-5.22-4.99-11.28-8.98-18.73-8.9C213.37,176.89,213.37,177.74,213.94,177.76L213.94,177.76z"/></g><g><path d="M229.86,183.06c4.42-10.81-5.36-15.11-14.93-14.01c-10.37,1.2-21.81,6.85-23.97,17.97c-0.16,0.83,1.03,1.18,1.28,0.35     c2.52-8.51,8.57-13.12,16.9-15.63c4.31-1.3,9.1-2.05,13.55-1.04c6.58,1.49,8.03,6.19,6.35,12.12     C228.88,183.37,229.66,183.55,229.86,183.06L229.86,183.06z"/></g><g><path d="M192.2,186.83c6.05-9.21,19.12,2.56,26.66,3.66c4.71,0.69,9.57-1.31,10.45-6.37c0.17-1-1.33-1.44-1.54-0.43     c-3.47,16.38-28.61-10.88-36.16,2.79C191.39,186.88,191.96,187.2,192.2,186.83L192.2,186.83z"/></g><g><path d="M230.51,123.55c-1.62,6.17-2.9,13.89,1.25,19.35c4.05,5.32,11.09,6.84,17.43,6.19c5.81-0.6,11.96-2.28,15.21-7.5     c1.48-2.38,3.02-5.46,2.51-8.34c-0.61-3.4-3.72-5.84-3.36-9.48c0.12-1.16-1.65-1.12-1.79,0c-0.55,4.18,3.38,6.74,3.48,10.73     c0.08,3.34-3.11,8.06-5.82,9.78c-2.35,1.49-5.3,2.22-8.02,2.7c-6.43,1.13-14.12,0.6-18.39-5.04c-4.05-5.35-2.5-12.17-1.81-18.31     C231.23,123.25,230.61,123.18,230.51,123.55L230.51,123.55z"/></g><g><path d="M232.18,105.41c-9.67-1.29-12.44,12.02-5.27,16.94c2.03,1.39,3.77,1.89,5.22,4.22c0.97,1.56,1.4,3.46,2.1,5.15     c0.89,2.14,2.1,4.06,3.72,5.73c1.73,1.77,3.81,3.17,6.13,4.07c3.66,1.43,8.41,1.05,10.4,5.09c0.53,1.08,2.14,0.13,1.61-0.94     c-1.64-3.33-4.73-4.17-8.12-4.97c-6.42-1.52-10.27-5.19-12.72-11.26c-1.41-3.49-2.54-5.46-5.72-7.52     c-3.54-2.3-6.29-4.98-5.06-9.59c1.04-3.9,4.09-5.4,7.8-6.24C232.68,105.99,232.53,105.46,232.18,105.41L232.18,105.41z"/></g><g><path d="M231.62,105.64c-0.69,3.55-0.21,6.71,0.71,10.17c1.11,4.11,2.13,8.56,4.18,12.33c1.56,2.87,3.84,5.11,6.53,6.92     c2.18,1.46,4.61,2.62,6.54,4.43c1.92,1.79,3.21,4.09,4.59,6.29c0.62,0.99,2.13,0.11,1.56-0.91c-1.6-2.87-3.37-5.57-5.96-7.65     c-2.87-2.3-6.36-3.63-8.97-6.28c-3.31-3.37-4.55-7.92-5.92-12.3c-1.33-4.27-2.56-8.35-2.48-12.87     C232.43,105.3,231.71,105.18,231.62,105.64L231.62,105.64z"/></g><g><path d="M246.12,112.4c2.63,1.14,5.56-0.82,3.7-3.66c-1.67-2.54-5.46-4.44-8.14-2.3c-2.51,2-2.72,6.03-0.9,8.53     c2.2,3.02,6.22,3.35,9.47,1.95c0.75-0.32,0.37-1.59-0.41-1.53c-1.71,0.12-3.39,0.79-5.1,0.29c-1.87-0.55-3.27-2.23-3.45-4.18     c-0.21-2.29,1.26-4.88,3.89-4.42c0.72,0.12,1.39,0.5,1.98,0.91c0.44,0.32,0.84,0.67,1.22,1.06c0.01,2.14-0.69,3.07-2.1,2.77     C245.98,111.81,245.83,112.28,246.12,112.4L246.12,112.4z"/></g><g><path d="M249.23,108.44c1.67-3.95-1.8-6.84-5.5-7.33c-4.8-0.64-10.02,0.7-12.82,4.83c-0.54,0.8,0.76,1.56,1.3,0.76     c2.03-3,5.24-4.06,8.75-4.23c3.36-0.16,8.91,0.96,7.68,5.72C248.56,108.53,249.08,108.78,249.23,108.44L249.23,108.44z"/></g><g><path d="M239.94,110.21c-6.17,2.23-6.96,12.54-2.78,16.93c0.54,0.57,1.34-0.15,1.03-0.79c-2.46-5.11-3.21-11.83,1.99-15.57     C240.44,110.59,240.29,110.08,239.94,110.21L239.94,110.21z"/></g><g><path d="M250.02,116.91c0.95,0.9,1.91,1.79,2.86,2.69c-0.36,0.57-0.71,1.15-1.07,1.72c-0.7,0.73-1.68,1.16-2.58,1.56     c-1.46,0.64-2.97,1.09-4.54,1.39c-2.38,0.45-4.71,0.58-6.75,2.02c-0.86,0.6-0.08,2.01,0.84,1.43c4.39-2.79,12.62-1.11,15.24-6.73     c1.33-2.84-1.28-7-4.32-4.62C249.44,116.56,249.72,117.03,250.02,116.91L250.02,116.91z"/></g><g><path d="M241.42,101.09c4.75-1.5,13.22-2.04,15.73,3.35c2.56,5.5-3.13,9.98-7.92,11.07c-0.85,0.19-0.64,1.48,0.2,1.49     c5.84,0.04,11.62-6.86,9.67-12.65c-2.27-6.73-12.88-6.28-17.89-3.75C240.94,100.74,241.13,101.18,241.42,101.09L241.42,101.09z"/></g><g><path d="M250.85,123.53c6.22,3.26,15.45,0.88,18.61-5.7c3.32-6.89-4.11-15.24-11.01-15c-1.24,0.04-1.25,1.97,0,1.93     c7.57-0.25,12.94,9.66,7.04,15.15c-3.89,3.62-9.41,4.08-14.37,2.97C250.75,122.8,250.48,123.33,250.85,123.53L250.85,123.53z"/></g><g><path d="M252.04,123.04c5.07-1.17,9.09-5.46,10.07-10.55c0.13-0.67-0.85-0.96-1.04-0.29c-1.3,4.8-4.58,8.4-9.19,10.25     C251.53,122.6,251.65,123.13,252.04,123.04L252.04,123.04z"/></g><g><path d="M242.27,148.03c-10.78-1.37-22.3,5.5-25.31,16.18c-0.2,0.72,0.93,1.25,1.25,0.53c4.56-10.37,12.47-16.21,24.06-16.04     C242.71,148.7,242.68,148.08,242.27,148.03L242.27,148.03z"/></g><g><path d="M218.45,164.01c4.26-4.54,9.43-6,15.17-7.9c4.86-1.6,9.44-3.95,13.9-6.43c0.87-0.49,0.1-1.79-0.78-1.33     c-6.1,3.16-12.16,5.72-18.61,8.07c-4.15,1.51-7.63,3.53-10.18,7.2C217.73,163.92,218.2,164.28,218.45,164.01L218.45,164.01z"/></g><g><path d="M247.83,149.54c5.23-0.18,10.64-0.75,15.55,1.47c4.77,2.16,6.99,6.44,10.25,10.22c0.5,0.58,1.34-0.16,1.02-0.79     c-2.24-4.4-6.08-8.83-10.68-10.83c-5.06-2.2-10.93-1.68-16.23-0.84C247.3,148.85,247.4,149.55,247.83,149.54L247.83,149.54z"/></g><g><path d="M246.68,149.36c3.24,11.15,18.84,6.63,26.37,12.05c0.92,0.66,1.81-0.87,0.89-1.53c-7.97-5.65-21.61-0.81-26.46-10.85     C247.26,148.58,246.54,148.9,246.68,149.36L246.68,149.36z"/></g></g></g><text x="0" y="527" fill="#000000" font-size="5px" font-weight="bold" font-family="'Helvetica Neue', Helvetica, Arial-Unicode, Arial, Sans-serif">Created by Mati Carrizales</text><text x="0" y="532" fill="#000000" font-size="5px" font-weight="bold" font-family="'Helvetica Neue', Helvetica, Arial-Unicode, Arial, Sans-serif">from the Noun Project</text></svg>