<svg xmlns="http://www.w3.org/2000/svg" version="1.1" xmlns:xlink="http://www.w3.org/1999/xlink" xmlns:svgjs="http://svgjs.dev/svgjs" width="2000" height="1500" viewBox="0 0 2000 1500"><rect width="2000" height="1500" fill="#ffffff"></rect><g transform="matrix(0.75,0,0,0.75,250,0.0008817331820978325)"><svg viewBox="0 0 280 280" data-background-color="#ffffff" preserveAspectRatio="xMidYMid meet" height="2000" width="2000" xmlns="http://www.w3.org/2000/svg" xmlns:xlink="http://www.w3.org/1999/xlink"><g id="tight-bounds" transform="matrix(1,0,0,1,0,0.000006737291528224887)"><svg viewBox="0 0 280 280" height="280" width="280"><g><svg viewBox="0 0 280 280" height="280" width="280"><g><svg viewBox="0 0 280 280" height="280" width="280"><g id="textblocktransform"><svg viewBox="0 0 280 280" height="280" width="280" id="textblock"><g><svg viewBox="0 0 280 280" height="280" width="280"><g transform="matrix(1,0,0,1,94.38083422622802,90.50252531694167)"><svg viewBox="0 0 91.23833154754398 98.99494936611664" height="98.99494936611664" width="91.23833154754398"><g><svg xmlns="http://www.w3.org/2000/svg" xmlns:xlink="http://www.w3.org/1999/xlink" version="1.1" x="0" y="0" viewBox="9.066 5.586 81.868 88.828" enable-background="new 0 0 100 100" xml:space="preserve" height="98.99494936611664" width="91.23833154754398" class="icon-kg-0" data-fill-palette-color="accent" id="kg-0"><path fill-rule="evenodd" clip-rule="evenodd" d="M65.385 51.557L90.934 50l-25-1.557c13.736-3.572 20.605-10.806 22.527-20.696-8.242-2.93-17.491-2.381-29.395 9.799L70.513 14.56l-13.92 20.879C60.44 21.795 57.601 12.18 50 5.586c-6.685 5.677-10.806 13.919-6.227 30.403L29.579 14.56l11.172 22.436c-9.982-10.164-19.689-12.454-29.213-9.249 1.648 8.699 6.685 16.392 23.168 20.696L9.066 50l25.092 1.557c-13.737 3.571-20.605 10.805-22.619 20.604 8.334 3.022 17.491 2.381 29.487-9.707L29.579 85.439l13.828-20.97C39.652 78.205 42.399 87.82 50 94.414c6.776-5.769 10.805-13.919 6.318-30.403l14.194 21.428L59.341 63.004c9.89 10.073 19.597 12.454 29.121 9.157C86.905 63.553 81.777 55.861 65.385 51.557zM50 62.75c-7.042 0-12.75-5.708-12.75-12.75S42.958 37.25 50 37.25 62.75 42.958 62.75 50 57.042 62.75 50 62.75z" fill="#99592a" data-fill-palette-color="accent"></path></svg></g></svg></g><g><path d="M29.704 107.237c-0.314 0.88-0.606 1.886-0.875 3.017-0.269 1.131-0.44 1.878-0.513 2.242v0l-2.104-1.017c0.213-1.271 0.17-2.194-0.129-2.769-0.307-0.57-1.004-1.05-2.092-1.439v0l-16.203-5.827c-0.824-0.294-1.416-0.403-1.777-0.326-0.357 0.085-0.634 0.405-0.831 0.958v0c-0.097 0.27-0.179 0.542-0.249 0.815-0.069 0.273-0.123 0.463-0.161 0.571v0l-0.255 0.089-1.952-1.058c0.132-0.371 0.393-1.04 0.781-2.008 0.39-0.974 0.75-1.923 1.081-2.848v0c0.341-0.956 0.679-1.981 1.012-3.074 0.33-1.102 0.557-1.868 0.682-2.298v0c0.939-2.629 2.189-4.452 3.75-5.469 1.561-1.017 3.326-1.174 5.295-0.471v0c1.302 0.465 2.341 1.279 3.117 2.443 0.782 1.166 1.244 2.564 1.384 4.195v0c1.066-1.655 2.314-2.826 3.743-3.513 1.43-0.688 2.887-0.767 4.372-0.237v0c1.465 0.523 2.638 1.42 3.516 2.691 0.877 1.277 1.391 2.787 1.543 4.529 0.155 1.75-0.089 3.528-0.734 5.333v0c-0.132 0.371-0.319 0.815-0.561 1.331-0.245 0.508-0.423 0.877-0.533 1.107v0c-0.75 1.682-1.185 2.693-1.307 3.033zM16.211 99.867c0.158-0.362 0.475-1.043 0.953-2.042 0.477-1 0.768-1.644 0.871-1.934v0c0.082 0.029 0.052-0.325-0.089-1.063-0.141-0.738-0.475-1.481-1.001-2.23-0.529-0.742-1.366-1.317-2.511-1.726v0c-1.541-0.55-2.868-0.439-3.98 0.334-1.113 0.773-2.057 2.247-2.834 4.424v0c-0.094 0.264-0.099 0.465-0.013 0.601 0.086 0.137 0.297 0.28 0.634 0.429v0c2.491 1.067 5.148 2.136 7.97 3.207zM18.929 100.923l6.665 2.603c0.931 0.332 1.71 0.245 2.338-0.261 0.63-0.513 1.214-1.524 1.753-3.033v0c0.523-1.465 0.532-2.76 0.025-3.884-0.513-1.126-1.473-1.941-2.882-2.444v0c-1.277-0.456-2.472-0.425-3.585 0.092-1.114 0.517-2.112 1.515-2.995 2.994v0z" fill="#2a160c" data-fill-palette-color="primary"></path><path d="M63.789 55.824l-1.217-1.995c0.772-0.804 1.165-1.531 1.179-2.182 0.014-0.651-0.349-1.458-1.09-2.421v0l-10.387-13.52c-0.549-0.715-0.996-1.138-1.341-1.269-0.346-0.122-0.765 0.007-1.258 0.386v0c-0.222 0.171-0.431 0.348-0.627 0.532-0.196 0.184-0.328 0.302-0.396 0.355v0l-0.288-0.095-1.049-1.859 0.961-0.688 3.178-2.391c0.604-0.464 1.364-1.107 2.282-1.93 0.908-0.824 1.513-1.369 1.814-1.634v0l1.266 2.009c-0.688 0.672-1.114 1.214-1.278 1.626-0.164 0.412-0.17 0.809-0.02 1.19 0.15 0.382 0.513 0.991 1.089 1.829v0c2.769 4.163 5.881 8.493 9.335 12.988v0c0.549 0.715 1.005 1.182 1.367 1.401 0.366 0.224 0.766 0.258 1.201 0.1 0.43-0.153 1.026-0.523 1.788-1.108v0c1.229-0.944 2.053-1.767 2.474-2.469 0.425-0.697 0.53-1.497 0.315-2.402-0.211-0.899-0.773-2.173-1.686-3.821v0l1.897-1.774 0.344 0.103c0.229 0.43 0.756 1.406 1.581 2.928 0.826 1.513 1.756 3.08 2.791 4.702v0l-0.031 0.454c-0.657 0.438-2.028 1.394-4.112 2.868-2.084 1.475-3.854 2.772-5.31 3.891v0c-1.139 0.875-2.16 1.731-3.066 2.57-0.905 0.839-1.474 1.381-1.706 1.626z" fill="#2a160c" data-fill-palette-color="primary"></path><path d="M131.329 28.165c-2.363 0.186-4.48-0.193-6.35-1.138-1.876-0.944-3.382-2.373-4.517-4.287-1.142-1.92-1.817-4.188-2.022-6.804v0c-0.221-2.809 0.176-5.386 1.19-7.73 1.021-2.345 2.527-4.238 4.517-5.681 1.997-1.443 4.316-2.269 6.959-2.477v0c2.417-0.19 4.583 0.182 6.498 1.117 1.91 0.942 3.441 2.355 4.594 4.24 1.154 1.892 1.833 4.146 2.04 6.763v0c0.223 2.836-0.182 5.434-1.216 7.792-1.027 2.358-2.565 4.265-4.614 5.719-2.05 1.447-4.409 2.276-7.079 2.486zM132.328 25.283c1.578-0.124 2.923-0.649 4.036-1.574 1.113-0.918 1.943-2.169 2.488-3.752 0.538-1.59 0.727-3.397 0.568-5.421v0c-0.19-2.417-0.702-4.49-1.534-6.219-0.826-1.73-1.916-3.024-3.27-3.883-1.353-0.851-2.875-1.211-4.566-1.077v0c-1.545 0.122-2.86 0.64-3.947 1.556-1.086 0.923-1.886 2.168-2.399 3.736-0.52 1.568-0.7 3.364-0.541 5.388v0c0.19 2.417 0.695 4.49 1.515 6.221 0.813 1.738 1.877 3.041 3.191 3.909 1.315 0.875 2.801 1.247 4.459 1.116z" fill="#2a160c" data-fill-palette-color="primary"></path><path d="M198.337 43.712c-2.048-1.194-3.571-2.712-4.569-4.554-1.004-1.845-1.427-3.877-1.269-6.097 0.155-2.229 0.894-4.476 2.216-6.744v0c1.419-2.435 3.214-4.326 5.383-5.673 2.175-1.345 4.492-2.043 6.949-2.094 2.463-0.048 4.84 0.595 7.13 1.93v0c2.094 1.221 3.662 2.761 4.704 4.621 1.032 1.862 1.485 3.896 1.358 6.103-0.13 2.212-0.856 4.452-2.178 6.719v0c-1.433 2.458-3.246 4.361-5.439 5.71-2.188 1.353-4.538 2.043-7.051 2.07-2.509 0.021-4.921-0.643-7.234-1.991zM200.8 41.913c1.367 0.797 2.772 1.133 4.214 1.007 1.438-0.12 2.833-0.675 4.183-1.666 1.348-1 2.533-2.376 3.556-4.13v0c1.221-2.094 1.982-4.089 2.283-5.985 0.307-1.893 0.149-3.577-0.474-5.054-0.627-1.471-1.673-2.633-3.138-3.488v0c-1.338-0.78-2.715-1.104-4.13-0.97-1.419 0.139-2.785 0.707-4.1 1.703-1.321 0.992-2.492 2.366-3.515 4.119v0c-1.221 2.094-1.988 4.086-2.301 5.975-0.322 1.892-0.19 3.568 0.395 5.031 0.582 1.468 1.591 2.621 3.027 3.458z" fill="#2a160c" data-fill-palette-color="primary"></path><path d="M245.049 97.351c4.467-4.009 10.034-9.127 16.702-15.356v0l-0.12-0.275c-0.282 0.123-2.513 0.895-6.694 2.317v0c-6.005 2.1-9.176 3.224-9.513 3.371v0c-0.802 0.35-1.023 0.938-0.662 1.764v0l0.677 1.453-0.141 0.203-2.225 0.511-0.403-1.026c-0.732-1.896-1.143-2.948-1.234-3.156v0c-0.259-0.594-0.604-1.259-1.034-1.996-0.431-0.737-0.709-1.217-0.835-1.439v0l2.234-0.69c0.418 0.743 0.912 1.198 1.481 1.365 0.562 0.17 1.389 0.094 2.479-0.228v0c2.334-0.712 5.62-1.747 9.857-3.106 4.246-1.356 6.602-2.135 7.068-2.338v0c0.698-0.304 1.092-0.753 1.183-1.346 0.097-0.596-0.071-1.492-0.505-2.687v0l0.171-0.26 1.881-0.449c0.717 1.997 1.307 3.524 1.768 4.584v0c0.077 0.178 0.474 0.988 1.191 2.431v0l0.418 0.834c-4.144 3.496-8.853 7.658-14.128 12.486v0l-1.216 1.12 0.104 0.239c1.033-0.086 1.85-0.151 2.45-0.194v0c6.44-0.469 12.434-0.973 17.983-1.512v0c0.133 0.306 0.239 0.581 0.316 0.824v0c0.452 1.187 0.823 2.071 1.112 2.651v0c0.248 0.569 0.629 1.343 1.143 2.321 0.52 0.975 0.813 1.54 0.88 1.693v0l-0.104 0.187-1.922 0.554c-0.618-1.049-1.176-1.728-1.674-2.035-0.504-0.305-1.078-0.317-1.721-0.037v0c-0.698 0.304-2.738 1.332-6.12 3.083-3.376 1.748-6.282 3.278-8.719 4.588v0c-0.965 0.544-1.67 0.99-2.116 1.338-0.452 0.35-0.722 0.683-0.811 0.998-0.094 0.318-0.051 0.685 0.13 1.101v0c0.101 0.233 0.215 0.46 0.341 0.682 0.126 0.222 0.194 0.345 0.205 0.37v0l-0.141 0.203-2.209 0.548c-0.056-0.129-0.252-0.637-0.588-1.525-0.34-0.879-0.651-1.643-0.933-2.292v0c-0.406-0.93-0.897-1.915-1.473-2.953-0.579-1.044-0.879-1.591-0.901-1.64v0l2.231-0.699c0.443 0.732 0.89 1.207 1.342 1.425 0.452 0.218 0.975 0.198 1.569-0.061v0c0.306-0.133 1.512-0.75 3.619-1.85 2.104-1.106 3.819-2.011 5.144-2.713v0c3.797-2.019 5.784-3.068 5.962-3.145v0l-0.121-0.275c-9.126 0.59-16.566 1.128-22.321 1.611v0z" fill="#2a160c" data-fill-palette-color="primary"></path><path d="M11.244 186.786c-0.306-0.862-0.709-1.807-1.209-2.834-0.493-1.03-0.829-1.704-1.005-2.024v0l2.235-0.528c0.632 1.101 1.24 1.774 1.824 2.02 0.59 0.244 1.42 0.176 2.489-0.204v0l15.937-5.619c0.812-0.288 1.327-0.574 1.546-0.857 0.225-0.285 0.24-0.702 0.045-1.249v0c-0.092-0.258-0.197-0.515-0.316-0.77-0.117-0.249-0.194-0.427-0.233-0.534v0l0.136-0.219 2.149-0.412c0.13 0.365 0.347 1.036 0.651 2.011 0.3 0.985 0.612 1.933 0.936 2.846v0c0.333 0.938 0.716 1.925 1.148 2.962 0.426 1.039 0.725 1.762 0.898 2.169v0c0.919 2.586 1.098 4.748 0.539 6.484-0.551 1.741-1.792 2.954-3.724 3.64v0c-1.277 0.454-2.575 0.482-3.892 0.086-1.32-0.403-2.539-1.182-3.658-2.336v0c0.215 1.922-0.008 3.589-0.669 5-0.663 1.405-1.725 2.367-3.184 2.885v0c-1.435 0.51-2.879 0.555-4.332 0.136-1.461-0.423-2.794-1.251-3.996-2.482-1.199-1.24-2.112-2.744-2.74-4.512v0c-0.132-0.371-0.264-0.824-0.397-1.357-0.135-0.54-0.233-0.934-0.293-1.183v0c-0.469-1.74-0.764-2.779-0.885-3.119zM26.09 184.021c0.098 0.376 0.278 1.092 0.54 2.147 0.255 1.057 0.433 1.728 0.534 2.011v0c-0.076 0.027 0.17 0.28 0.737 0.758 0.565 0.473 1.279 0.828 2.143 1.067 0.856 0.235 1.847 0.152 2.974-0.248v0c1.51-0.537 2.45-1.441 2.82-2.714 0.368-1.279 0.172-2.988-0.588-5.127v0c-0.092-0.258-0.211-0.414-0.358-0.468-0.151-0.046-0.402-0.024-0.753 0.065v0c-2.558 0.739-5.241 1.575-8.049 2.509zM23.355 184.908l-6.678 2.149c-0.912 0.324-1.453 0.878-1.622 1.66-0.164 0.774 0.018 1.907 0.549 3.398v0c0.51 1.435 1.309 2.419 2.399 2.954 1.086 0.543 2.321 0.568 3.705 0.076v0c1.252-0.445 2.14-1.207 2.664-2.286 0.528-1.088 0.671-2.471 0.429-4.149v0z" fill="#2a160c" data-fill-palette-color="primary"></path><path d="M51.47 248.008l1.59-1.659c0.956 0.532 1.745 0.722 2.368 0.569 0.623-0.153 1.296-0.701 2.02-1.644v0l10.198-13.273c0.541-0.704 0.826-1.235 0.856-1.591 0.034-0.362-0.191-0.727-0.672-1.098v0c-0.222-0.171-0.445-0.325-0.668-0.462-0.223-0.137-0.369-0.233-0.437-0.286v0l0.019-0.288 1.5-1.475 0.897 0.74 3.067 2.419c0.588 0.452 1.391 1.006 2.411 1.663 1.014 0.653 1.683 1.087 2.007 1.302v0l-1.581 1.729c-0.812-0.489-1.433-0.76-1.864-0.813-0.431-0.053-0.811 0.042-1.141 0.285-0.326 0.238-0.813 0.735-1.462 1.491v0c-3.251 3.683-6.571 7.731-9.961 12.142v0c-0.541 0.704-0.869 1.257-0.983 1.658-0.114 0.401-0.045 0.787 0.209 1.158 0.263 0.37 0.765 0.84 1.506 1.41v0c1.213 0.932 2.2 1.51 2.964 1.734 0.772 0.223 1.559 0.12 2.359-0.309 0.801-0.429 1.87-1.283 3.208-2.564v0l2.162 1.346-0.018 0.352c-0.348 0.322-1.136 1.068-2.364 2.239-1.233 1.166-2.489 2.445-3.77 3.837v0l-0.431 0.085c-0.582-0.514-1.837-1.571-3.766-3.171-1.925-1.605-3.602-2.957-5.032-4.056v0c-1.117-0.858-2.19-1.611-3.217-2.257-1.018-0.648-1.676-1.052-1.974-1.213z" fill="#2a160c" data-fill-palette-color="primary"></path><path d="M129.894 279.953c-2.317-0.179-4.31-0.869-5.978-2.07-1.675-1.201-2.92-2.818-3.735-4.849-0.814-2.032-1.122-4.333-0.924-6.904v0c0.213-2.763 0.991-5.201 2.334-7.314 1.349-2.119 3.098-3.729 5.245-4.83 2.154-1.093 4.529-1.539 7.126-1.338v0c2.377 0.184 4.42 0.874 6.13 2.071 1.715 1.204 2.988 2.809 3.817 4.816 0.829 2.013 1.145 4.301 0.947 6.865v0c-0.215 2.79-1.002 5.251-2.358 7.383-1.356 2.126-3.142 3.736-5.357 4.83-2.208 1.095-4.623 1.542-7.247 1.34zM131.304 277.309c1.551 0.12 2.938-0.182 4.159-0.905 1.222-0.729 2.214-1.822 2.976-3.276 0.768-1.448 1.229-3.167 1.383-5.158v0c0.184-2.377 0.003-4.467-0.541-6.271-0.537-1.803-1.399-3.223-2.584-4.258-1.186-1.036-2.604-1.618-4.256-1.746v0c-1.518-0.117-2.874 0.187-4.069 0.912-1.195 0.732-2.163 1.816-2.904 3.252-0.734 1.444-1.178 3.161-1.332 5.151v0c-0.183 2.37-0.013 4.46 0.511 6.269 0.531 1.803 1.365 3.227 2.503 4.272 1.145 1.046 2.53 1.632 4.154 1.758z" fill="#2a160c" data-fill-palette-color="primary"></path><path d="M208.96 261.502c-2.005 1.175-4.035 1.746-6.09 1.712-2.061-0.03-4.006-0.647-5.835-1.852-1.828-1.204-3.394-2.918-4.697-5.141v0c-1.401-2.391-2.154-4.837-2.258-7.339-0.101-2.51 0.416-4.83 1.552-6.959 1.145-2.127 2.841-3.848 5.088-5.165v0c2.057-1.206 4.128-1.805 6.215-1.797 2.096 0.01 4.057 0.602 5.883 1.776 1.83 1.18 3.395 2.879 4.695 5.097v0c1.415 2.414 2.174 4.884 2.276 7.409 0.099 2.52-0.448 4.861-1.642 7.024-1.188 2.159-2.917 3.904-5.187 5.235zM208.609 258.526c1.342-0.787 2.309-1.826 2.899-3.116 0.587-1.296 0.778-2.759 0.574-4.389-0.195-1.627-0.798-3.302-1.807-5.025v0c-1.206-2.057-2.546-3.67-4.022-4.841-1.47-1.174-2.988-1.848-4.553-2.022-1.565-0.174-3.062 0.158-4.491 0.995v0c-1.314 0.77-2.254 1.793-2.821 3.071-0.564 1.283-0.74 2.725-0.529 4.327 0.221 1.605 0.836 3.268 1.846 4.991v0c1.202 2.051 2.534 3.67 3.996 4.856 1.464 1.177 2.962 1.871 4.494 2.08 1.537 0.206 3.009-0.103 4.414-0.927z" fill="#2a160c" data-fill-palette-color="primary"></path><path d="M264.526 198.329c-5.871-0.524-13.276-1.091-22.218-1.699v0l-0.115 0.267c0.282 0.122 2.334 1.206 6.156 3.253v0c5.53 2.909 8.461 4.435 8.792 4.578v0c0.785 0.339 1.353 0.102 1.706-0.714v0l0.591-1.468 0.241-0.027 1.86 1.252-0.476 0.973c-0.866 1.801-1.343 2.802-1.431 3.004v0c-0.252 0.582-0.498 1.276-0.737 2.083-0.243 0.797-0.401 1.314-0.475 1.551v0l-2-1.127c0.258-0.798 0.256-1.457-0.007-1.978-0.256-0.518-0.865-1.062-1.826-1.631v0c-2.073-1.195-5.017-2.858-8.833-4.989-3.812-2.137-5.948-3.305-6.408-3.503v0c-0.686-0.297-1.276-0.279-1.769 0.053-0.487 0.335-1.017 1.055-1.59 2.161v0l-0.297 0.057-1.579-1.044c0.953-1.85 1.655-3.297 2.106-4.338v0c0.077-0.178 0.39-1.01 0.939-2.497v0l0.325-0.853c5.281 0.626 11.421 1.216 18.421 1.77v0l1.622 0.112 0.099-0.229c-0.756-0.691-1.35-1.235-1.782-1.634v0c-4.65-4.304-9.03-8.265-13.14-11.883v0c0.13-0.3 0.258-0.562 0.383-0.784v0c0.548-1.116 0.938-1.974 1.168-2.573v0c0.241-0.558 0.537-1.35 0.886-2.378 0.353-1.019 0.563-1.605 0.63-1.757v0l0.199-0.056 1.693 1.005c-0.346 1.153-0.458 2.01-0.338 2.572 0.112 0.565 0.487 0.986 1.124 1.261v0c0.686 0.297 2.79 1.069 6.311 2.315 3.512 1.25 6.559 2.314 9.141 3.191v0c1.032 0.323 1.824 0.527 2.376 0.613 0.549 0.092 0.97 0.063 1.261-0.088 0.288-0.145 0.52-0.419 0.694-0.823v0c0.101-0.233 0.188-0.468 0.262-0.706 0.074-0.237 0.116-0.368 0.126-0.393v0l0.245-0.036 1.862 1.221c-0.053 0.123-0.282 0.602-0.687 1.438-0.405 0.836-0.746 1.573-1.022 2.21v0c-0.395 0.913-0.771 1.926-1.128 3.037-0.363 1.109-0.557 1.691-0.581 1.746v0l-1.997-1.137c0.233-0.809 0.277-1.448 0.132-1.918-0.146-0.47-0.51-0.832-1.092-1.084v0c-0.306-0.133-1.559-0.584-3.759-1.353-2.205-0.772-4.002-1.396-5.389-1.873v0c-3.997-1.373-6.085-2.098-6.262-2.174v0l-0.116 0.266c6.541 6.155 11.914 11.135 16.118 14.941v0z" fill="#2a160c" data-fill-palette-color="primary"></path><path d="M3.254 143.799c0-5.809 4.71-10.519 10.519-10.519 5.809 0 10.519 4.71 10.519 10.519 0 5.809-4.71 10.519-10.519 10.519-5.809 0-10.519-4.71-10.519-10.519z" fill="#2a160c" data-fill-palette-color="primary"></path><path d="M255.687 143.799c0-5.809 4.71-10.519 10.519-10.519 5.809 0 10.519 4.71 10.519 10.519 0 5.809-4.71 10.519-10.519 10.519-5.809 0-10.519-4.71-10.519-10.519z" fill="#2a160c" data-fill-palette-color="primary"></path></g></svg></g></svg></g></svg></g><g></g></svg></g><defs></defs></svg><rect width="280" height="280" fill="none" stroke="none" visibility="hidden"></rect></g></svg></g></svg>